<svg width="48" height="37" viewBox="0 0 48 37" fill="none" xmlns="http://www.w3.org/2000/svg">
<path d="M0.894049 36.2937V25.7852C0.894049 22.8013 1.47786 19.7525 2.64547 16.6389C3.81308 13.5252 5.35368 10.59 7.26727 7.83312C9.18086 5.07625 11.2566 2.77345 13.4945 0.924737L22.6409 6.32495C20.8246 9.17912 19.3326 12.163 18.165 15.2767C17.0298 18.3903 16.4622 21.8607 16.4622 25.6879V36.2937H0.894049ZM25.4626 36.2937V25.7852C25.4626 22.8013 26.0464 19.7525 27.214 16.6389C28.3816 13.5252 29.9222 10.59 31.8358 7.83312C33.7494 5.07625 35.8252 2.77345 38.0631 0.924737L47.2094 6.32495C45.3931 9.17912 43.9012 12.163 42.7335 15.2767C41.5984 18.3903 41.0308 21.8607 41.0308 25.6879V36.2937H25.4626Z" fill="#EAE2D2"/>
</svg>
